<?xml version="1.0" standalone="no"?><!DOCTYPE svg PUBLIC "-//W3C//DTD SVG 1.1//EN" "http://www.w3.org/Graphics/SVG/1.1/DTD/svg11.dtd"><svg t="1593274362718" class="icon" viewBox="0 0 1024 1024" version="1.1" xmlns="http://www.w3.org/2000/svg" p-id="23038" xmlns:xlink="http://www.w3.org/1999/xlink" width="200" height="200"><defs><style type="text/css"></style></defs><path d="M805.483 611.526c-53.655 31.845-348.466 188.896-606.834-36.485 0 0 104.607 186.088 326.961 235.417 161.443 35.876 250.724-60.981 280.118-136.405 121.35-101.029 148.189-209.535 148.189-209.535-32.198 67.99-132.235 136.288-148.434 147.008zM80.232 378.596c54.891 89.067 114.541 151.626 175.203 194.428-31.058-50.824-31.517-87.346-31.517-87.346 29.972 66.223 86.431 114.068 108.45 131.139 36.43 16.355 72.693 27.004 108.06 32.776-73.67-74.27-87.359-145.903-87.359-145.903 54.206 85.1 144.713 138.117 169.713 151.594 36.194-0.623 70.524-5.323 101.979-12.158-106.446-69.711-138.187-152.807-138.187-152.807 71.62 77.982 173.321 118.83 210.715 132.023 68.698-24.422 112.161-53.368 112.161-53.368S701.146 340.869 424.831 385.367c-205.2 32.967-344.599-6.771-344.599-6.771z" fill="#dbdbdb" p-id="23039"></path></svg>