<?xml version="1.0" standalone="no"?><!DOCTYPE svg PUBLIC "-//W3C//DTD SVG 1.1//EN" "http://www.w3.org/Graphics/SVG/1.1/DTD/svg11.dtd"><svg t="1593271854052" class="icon" viewBox="0 0 1024 1024" version="1.1" xmlns="http://www.w3.org/2000/svg" p-id="10539" xmlns:xlink="http://www.w3.org/1999/xlink" width="200" height="200"><defs><style type="text/css"></style></defs><path d="M894.208 409.6l0.192 0.448c-0.128-0.192-9.92-17.024-24.96-20.416-13.248-3.008-28.8 5.504-39.552 13.184l-42.24-58.432c41.6-29.76 76.48-29.696 98.432-24.448 46.528 11.2 69.248 52.096 71.68 56.704l-63.552 33.024zM736 223.36l91.392-91.392 50.56 50.56-91.392 91.52-50.56-50.624z m-20.032 535.232a319.616 319.616 0 0 1-268.032 90.88l-173.056 104.448-0.448-0.448a128.128 128.128 0 0 1-173.632-6.784l-25.472-25.472a128.128 128.128 0 0 1-6.784-173.632l-0.448-0.448L172.544 574.08a319.616 319.616 0 0 1 90.88-268.032 320.384 320.384 0 0 1 452.48 0 320.384 320.384 0 0 1 0 452.544zM126.208 870.4l25.472 25.408c19.2 19.136 49.28 21.824 71.488 6.4l-103.36-103.296a56.064 56.064 0 0 0 6.4 71.488z m32.64-134.272l127.04 127.04 68.032-40.96a320.128 320.128 0 0 1-154.048-154.048l-40.96 67.968z m506.24-379.136a248 248 0 1 0-350.72 350.72 248 248 0 0 0 350.72-350.72z m-186.24 325.76l-48.768-48.704 44.416-88.512L384 587.904l-48.704-48.704 93.12-188.928 64.896 31.488-47.36 97.408 98.688-44.544 42.88 42.88-46.72 96.448 100.48-45.44 29.696 65.664-192.256 88.512z m128.96-499.52c6.592-11.392 13.568-27.776 9.216-40.704-4.928-14.592-22.784-22.72-22.976-22.784l0.448 0.128 26.624-66.624c4.928 1.92 48.128 20.48 64 65.728 7.552 21.376 11.136 56.128-14.528 100.48l-62.72-36.224z m-475.776 140.8a51.968 51.968 0 1 1 0-103.936 51.968 51.968 0 0 1 0 103.936z m707.968 382.08a51.968 51.968 0 1 1 0 103.936 51.968 51.968 0 0 1 0-104z" p-id="10540" fill="#dbdbdb"></path></svg>