<?xml version="1.0" standalone="no"?><!DOCTYPE svg PUBLIC "-//W3C//DTD SVG 1.1//EN" "http://www.w3.org/Graphics/SVG/1.1/DTD/svg11.dtd"><svg t="1592299860207" class="icon" viewBox="0 0 1228 1024" version="1.1" xmlns="http://www.w3.org/2000/svg" p-id="2595" xmlns:xlink="http://www.w3.org/1999/xlink" width="239.84375" height="200"><defs><style type="text/css"></style></defs><path d="M1101.824 65.843H371.917a82.125 82.125 0 0 0-81.715 81.715c0 44.954 36.864 81.818 81.715 81.818h729.907c44.954 0 81.818-36.864 81.818-81.818a82.125 82.125 0 0 0-81.818-81.715z m0 364.749H371.917a82.125 82.125 0 0 0-81.715 81.818c0 44.953 36.864 81.817 81.715 81.817h729.907c44.954 0 81.818-36.864 81.818-81.92a82.125 82.125 0 0 0-81.818-81.715z m0 368.026H371.917a82.125 82.125 0 0 0-81.715 81.817c0 44.851 36.864 81.715 81.715 81.715h729.907c44.954 0 81.818-36.864 81.818-81.715a82.125 82.125 0 0 0-81.818-81.92zM125.542 67.072a80.896 80.896 0 0 0-80.588 80.691v2.253a80.896 80.896 0 0 0 80.588 80.691 80.896 80.896 0 0 0 80.692-80.691v-2.253a80.896 80.896 0 0 0-80.692-80.691z m0 364.851a80.896 80.896 0 0 0-80.588 80.589v2.355a80.896 80.896 0 0 0 80.588 80.589 80.896 80.896 0 0 0 80.692-80.589v-2.355a80.896 80.896 0 0 0-80.692-80.589z m0 367.923a80.896 80.896 0 0 0-80.486 80.794v2.253a80.896 80.896 0 0 0 80.589 80.691 80.896 80.896 0 0 0 80.691-80.691v-2.253a80.896 80.896 0 0 0-80.691-80.691z" p-id="2596" fill="#515151"></path></svg>