<?xml version="1.0" standalone="no"?><!DOCTYPE svg PUBLIC "-//W3C//DTD SVG 1.1//EN" "http://www.w3.org/Graphics/SVG/1.1/DTD/svg11.dtd"><svg t="1592138543843" class="icon" viewBox="0 0 1024 1024" version="1.1" xmlns="http://www.w3.org/2000/svg" p-id="4113" xmlns:xlink="http://www.w3.org/1999/xlink" width="200" height="200"><defs><style type="text/css"></style></defs><path d="M907.06 174.95a30.362 30.362 0 0 1 0 12.698 29.491 29.491 0 0 0 0-12.698z m0 0a26.42 26.42 0 0 0-1.383-4.454 22.477 22.477 0 0 1 1.382 4.454z m-35.79-23.296a30.362 30.362 0 0 1 12.698 0 29.491 29.491 0 0 0-12.698 0z" p-id="4114" fill="#ffffff"></path><path d="M907.264 187.648a16.282 16.282 0 0 1-0.666 2.611 0.666 0.666 0 0 1 0 0.41 16.947 16.947 0 0 1-0.716 2.099c0 0.307 0 0.614-0.359 0.973a6.246 6.246 0 0 1-0.358 0.87l-337.92 734.003a30.72 30.72 0 0 1-25.6 17.767h-2.202a30.72 30.72 0 0 1-25.6-14.08L361.677 697.24 126.515 545.383a30.72 30.72 0 0 1 3.789-53.862L864.307 153.6h0.973a3.738 3.738 0 0 1 0.973-0.358 14.49 14.49 0 0 1 2.099-0.717 0.41 0.41 0 0 1 0.41 0 15.002 15.002 0 0 1 2.61-0.666 30.362 30.362 0 0 1 12.698 0l2.15 0.512 2.202 0.82a19.405 19.405 0 0 1 2.15 0.921 20.992 20.992 0 0 1 2.1 1.126l1.69 1.024a29.952 29.952 0 0 1 7.987 7.885v0.359a29.72 29.72 0 0 1 1.024 1.69 16.538 16.538 0 0 1 1.126 2.098 19.405 19.405 0 0 1 0.922 2.15 26.42 26.42 0 0 1 1.382 4.455 30.362 30.362 0 0 1 0.461 12.749z" p-id="4115" fill="#ffffff"></path></svg>