<?xml version="1.0" standalone="no"?><!DOCTYPE svg PUBLIC "-//W3C//DTD SVG 1.1//EN" "http://www.w3.org/Graphics/SVG/1.1/DTD/svg11.dtd"><svg t="1593271455317" class="icon" viewBox="0 0 1024 1024" version="1.1" xmlns="http://www.w3.org/2000/svg" p-id="8551" xmlns:xlink="http://www.w3.org/1999/xlink" width="200" height="200"><defs><style type="text/css"></style></defs><path d="M377.6 928l288-44.8c25.6-6.4 44.8 12.8 51.2 38.4 6.4 25.6-12.8 44.8-38.4 51.2l-288 44.8c-25.6 6.4-44.8-12.8-51.2-38.4-6.4-25.6 12.8-51.2 38.4-51.2z" p-id="8552" fill="#cdcdcd"></path><path d="M396.8 864c-12.8 0-19.2-6.4-32-12.8s-12.8-19.2-12.8-32v-121.6c-121.6-64-204.8-192-204.8-326.4C147.2 172.8 313.6 6.4 512 6.4s364.8 160 364.8 364.8c0 134.4-76.8 262.4-198.4 320v89.6c0 19.2-12.8 38.4-38.4 44.8l-236.8 38.4h-6.4zM512 96c-153.6 0-275.2 121.6-275.2 275.2 0 115.2 70.4 217.6 179.2 256 19.2 6.4 32 32 25.6 51.2V768l147.2-25.6c0-32 0-57.6 6.4-83.2 0-19.2 12.8-32 25.6-38.4 102.4-44.8 166.4-140.8 166.4-249.6 0-153.6-121.6-275.2-275.2-275.2z" p-id="8553" fill="#cdcdcd"></path></svg>