<?xml version="1.0" standalone="no"?><!DOCTYPE svg PUBLIC "-//W3C//DTD SVG 1.1//EN" "http://www.w3.org/Graphics/SVG/1.1/DTD/svg11.dtd"><svg t="1593272575699" class="icon" viewBox="0 0 1024 1024" version="1.1" xmlns="http://www.w3.org/2000/svg" p-id="17520" xmlns:xlink="http://www.w3.org/1999/xlink" width="200" height="200"><defs><style type="text/css"></style></defs><path d="M223.808 548.032 94.08 352.128 31.68 352.128l0 320.256 64.064 0L95.744 467.456l136.64 204.928 55.488 0L287.872 352.128 223.808 352.128 223.808 548.032zM444.8 534.144l93.888 0L538.688 470.08 444.8 470.08 444.8 416.192l167.104 0L611.904 352.128 380.736 352.128l0 320.256 235.904 0L616.64 608.32 444.8 608.32 444.8 534.144zM928.896 352.128l-27.264 174.592-44.864-174.592-67.264 0-44.224 173.504-28.224-174.016-64.128 0 50.752 320.768 66.112 0 55.488-191.04 49.6 191.04 66.752 0 50.752-320.256L928.896 352.128z" p-id="17521" fill="#dbdbdb"></path></svg>