<?xml version="1.0" standalone="no"?><!DOCTYPE svg PUBLIC "-//W3C//DTD SVG 1.1//EN" "http://www.w3.org/Graphics/SVG/1.1/DTD/svg11.dtd"><svg t="1593271934236" class="icon" viewBox="0 0 2048 1024" version="1.1" xmlns="http://www.w3.org/2000/svg" p-id="11387" xmlns:xlink="http://www.w3.org/1999/xlink" width="400" height="200"><defs><style type="text/css"></style></defs><path d="M266.6496 181.7088l295.9872 0 26.5216-40.4992c5.3248-8.3456 11.1616-13.1584 17.5104-14.4896s13.1584-0.3072 20.48 3.0208 21.6576 9.2672 43.008 17.7664 40.2432 17.92 56.7296 28.2624 25.088 18.3296 25.7536 24.0128c0.6656 8.6528-13.6704 24.6784-43.008 47.9744l0 508.0064 5.0176 131.0208c-3.9936 10.6496-9.4208 18.944-16.2304 24.7296s-24.7296 11.8272-53.76 18.0224c-28.9792 6.144-48.3328 4.4032-58.0096-5.2736-3.9936-3.6864-6.2464-7.0656-6.7584-10.24s-0.768-12.7488-0.768-28.7744l0-62.0032L249.1904 823.2448l0 42.496c0 18.0224-0.4096 28.8256-1.2288 32.512s-3.6864 8.0896-8.4992 13.2608-16.0768 9.984-33.7408 14.4896S169.984 931.84 151.6544 930.2016c-15.9744-1.3312-25.344-4.2496-28.0064-8.7552s-4.1984-9.5744-4.5056-15.2576l7.0144-146.0224L126.1568 252.2112 120.6784 128.7168C122.0096 125.3888 123.4432 123.1872 124.928 122.2144s6.912 0.512 16.2304 4.5056L266.6496 181.7088zM249.1904 473.1904l329.984 0L579.1744 201.216 249.1904 201.216 249.1904 473.1904zM249.1904 803.6864l329.984 0L579.1744 492.6976 249.1904 492.6976 249.1904 803.6864z" p-id="11388" fill="#cdcdcd"></path><path d="M1386.6496 265.728 1386.6496 139.2128l-5.0176-93.4912c3.6352-2.6624 10.3424-3.328 20.0192-1.9968C1414.2976 46.0288 1436.7744 48.5376 1468.928 51.2s50.1248 9.1648 53.76 19.5072c2.3552 8.3456 0.3584 13.824-5.9904 16.4864l-24.5248 15.9744L1492.1728 265.728l39.4752 0c9.0112-26.0096 17.3568-49.664 24.9856-71.0144s13.3632-39.3216 16.9984-54.016l10.496-45.0048 2.5088-18.9952c2.3552-5.6832 8.8576-6.8096 19.5072-3.4816 15.0016 5.3248 41.5232 14.08 79.5136 26.2656s57.344 24.4224 58.0096 36.7616c0.3584 10.6496-3.9936 15.6672-13.0048 15.0016L1691.648 157.184c-13.3632 12.3392-23.3472 21.3504-30.0032 26.9824l-56.9856 46.4896-41.984 35.0208 194.5088 0.512c7.0144-10.6496 13.3632-20.5824 18.9952-29.7472s10.9056-14.4896 15.7696-15.9744 13.2608 0.9216 25.2416 7.2704c12.3392 7.0144 24.832 14.848 37.4784 23.5008l45.9776 33.024c23.3472 16.3328 32.1536 29.2352 26.5216 38.7584s-11.3664 14.336-16.9984 14.4896-13.9776 0-24.9856-0.512-20.6336-0.5632-28.9792-0.256c-34.3552 1.9968-63.8464 11.9808-88.5248 30.0032l-22.4768 16.4864c-8.3456 6.3488-13.1072 7.3216-14.2336 3.0208s-0.768-8.8064 1.2288-13.5168l9.984-22.4768 16.4864-33.024 13.5168-31.488-641.024 0c-0.3584 20.0192-1.9968 38.656-5.0176 56.0128s-11.008 31.9488-24.0128 43.7248S1072.5376 403.968 1052.16 405.4528s-36.4032-3.1744-48.2304-13.9776-16.7424-25.6-14.7456-44.2368c1.024-10.3424 3.8912-18.5856 8.7552-24.7296s16.384-17.5616 34.7648-34.2528 28.8256-31.744 31.488-45.2608 3.9936-22.5792 3.9936-27.2384l-1.4848-20.992c1.024-11.9808 6.5024-13.5168 16.4864-4.5056 3.0208 3.0208 8.6016 10.9056 16.7424 23.7568s13.1072 20.736 14.7456 23.7568l13.5168 28.0064L1386.6496 265.7792zM1313.1776 366.6944l261.4784 0c7.0144-9.984 13.1072-18.8416 18.2272-26.5216s10.1376-12.3392 15.0016-13.9776 14.2336 0.8192 28.2624 7.4752l40.4992 19.5072c23.6544 12.3392 35.6352 22.3232 35.9936 30.0032 0 6.656-7.4752 15.9744-22.4768 28.0064l0 58.5216 3.0208 62.5152c-4.6592 11.9808-11.008 19.2-18.9952 21.504s-24.2688 5.1712-48.7424 8.4992c-24.5248 3.328-36.7616-3.6864-36.7616-20.992l0-28.0064-75.008 0c-4.6592 9.0112-7.6288 13.9776-9.0112 15.0016l-12.4928 13.0048 0.512 75.008 170.496 0c6.656-11.3152 12.6464-21.1968 18.0224-29.4912s10.6496-13.568 15.9744-15.7696 15.6672 0.4096 30.976 7.7312c45.6704 22.6816 71.6288 36.7616 77.9776 42.24s9.984 9.9328 11.008 13.2608c1.9968 9.3184-6.5024 21.3504-25.4976 35.9936l0 140.4928c0 22.9888-0.9216 38.5024-2.7648 46.4896s-6.3488 15.4112-13.5168 22.272-20.1728 12.7488-39.0144 17.7664-35.9936 8.6528-51.5072 11.008-24.8832 2.5088-28.2624 0.512c-3.6352-1.6896-5.9904-3.7376-7.0144-6.2464s-1.7408-8.192-2.2528-16.9984-4.096-18.176-10.752-28.0064c-6.656-9.8304-12.6464-16.2304-18.0224-19.2512s-16.128-7.68-32.512-13.9776l-22.9888-9.0112c-5.632-1.9968-8.3968-5.5808-8.2432-10.752s6.4-7.0656 18.7392-5.7344l22.016 3.0208c45.0048 6.3488 69.9904 6.2464 75.008-0.256s7.4752-15.4112 7.4752-26.7264l0-139.008-185.4976 0 0 193.9968 4.5056 120.9856c-5.9904 11.008-16.4864 18.9952-31.488 24.0128s-29.8496 7.0144-44.4928 5.9904c-10.3424-0.3584-18.3808-2.4064-24.2688-6.2464s-10.752-9.728-14.7456-17.7664l4.5056-128.512 0-192.512-145.5104 0 0 186.9824 3.4816 52.992c-2.3552 6.656-6.3488 12.5952-11.9808 17.7664s-18.4832 8.8064-38.5024 11.008-33.8432 2.56-41.5232 1.2288c-7.6288-0.6656-12.8512-2.304-15.5136-5.0176s-4.864-5.9904-6.5024-9.984l4.5056-93.4912 0.512-99.0208-4.5056-112.0256c0.3584-1.3312 0.9216-2.9184 1.7408-4.7616s10.5984 0.256 29.2352 6.2464l86.9888 28.5184 137.5232 0 0-103.0144-79.5136 0 0 16.4864c0 7.3216-1.5872 13.1584-4.7616 17.5104s-17.2544 8.4992-42.24 12.4928-39.9872 4.3008-45.0048 1.024-8.6528-7.3216-11.008-11.9808l3.0208-69.9904L1206.9888 398.6944l-3.0208-57.4976c1.3312-2.6624 2.8672-4.6592 4.5056-5.9904L1244.16 346.2144 1313.1776 366.6944zM1198.1824 89.7024c15.36 1.024 29.5936 2.4064 42.752 4.2496s28.6208 6.5024 46.2336 13.9776 30.976 16.7424 39.9872 27.7504 14.336 24.2688 15.9744 39.7312-1.9968 29.8496-11.008 43.008-21.8624 22.4768-38.5024 28.0064-30.976 2.56-43.008-8.7552c-5.3248-4.6592-9.5232-11.8272-12.4928-21.504l-7.4752-32.512c-7.3728-28.672-18.6368-48.2304-33.9968-58.7264s-24.7296-17.408-28.2624-20.736-4.608-6.8096-3.2256-10.496 4.352-5.4784 9.0112-5.4784L1198.1824 89.7024zM1588.6848 493.7216l0-107.52-281.4976-1.024 0 108.4928L1588.6848 493.6704z" p-id="11389" fill="#cdcdcd"></path></svg>