<?xml version="1.0" standalone="no"?>
<!DOCTYPE svg PUBLIC "-//W3C//DTD SVG 20010904//EN"
 "http://www.w3.org/TR/2001/REC-SVG-20010904/DTD/svg10.dtd">
<svg version="1.0" xmlns="http://www.w3.org/2000/svg"
 width="160.000000pt" height="160.000000pt" viewBox="0 0 160.000000 160.000000"
 preserveAspectRatio="xMidYMid meet">
<metadata>
Created by potrace 1.11, written by Peter Selinger 2001-2013
</metadata>
<g transform="translate(0.000000,160.000000) scale(0.100000,-0.100000)"
fill="#000000" stroke="none">
<path d="M787 1172 c-10 -10 -17 -23 -17 -29 0 -21 -32 -23 -59 -4 -15 11 -40
23 -55 27 -28 7 -28 7 -23 -37 2 -24 8 -54 12 -66 11 -35 -16 -29 -56 13 -39
42 -71 56 -103 48 -22 -5 -23 -11 -29 -127 -5 -95 -11 -131 -27 -162 -11 -21
-20 -54 -20 -73 0 -57 -13 -69 -81 -76 -45 -5 -67 -13 -85 -31 -24 -24 -32
-59 -15 -69 5 -3 7 -23 4 -45 -3 -23 -1 -41 6 -45 6 -4 11 -29 11 -55 0 -63
14 -75 78 -66 58 8 206 -11 236 -30 45 -29 131 -38 302 -32 154 5 213 13 269
36 11 5 36 15 55 22 62 22 77 43 84 119 4 38 11 72 17 75 5 4 9 15 9 25 0 10
3 20 8 22 10 4 52 92 52 110 0 23 -32 47 -71 54 -72 12 -79 15 -79 32 0 10 -5
23 -11 29 -7 7 -15 63 -19 126 -4 63 -10 119 -14 125 -9 15 -61 15 -89 1 -12
-6 -34 -23 -48 -36 -23 -21 -30 -23 -48 -14 -26 15 -26 31 0 76 34 57 2 89
-45 46 -12 -10 -31 -22 -44 -26 -19 -6 -25 -2 -35 24 -13 36 -44 41 -70 13z
m49 -83 c3 -6 24 -9 45 -7 34 3 39 1 39 -17 0 -19 -5 -20 -102 -17 -57 2 -108
8 -115 14 -23 19 -14 29 21 22 19 -3 43 -1 53 5 24 14 50 14 59 0z m-265 -70
l33 -31 108 13 c116 13 229 2 276 -27 21 -14 25 -13 63 23 22 21 49 41 59 45
19 7 20 3 20 -79 0 -79 8 -122 31 -178 15 -34 28 -107 22 -122 -6 -16 -66 -43
-98 -43 -12 0 -25 -3 -29 -7 -24 -24 -288 -41 -356 -23 -66 17 -152 50 -185
70 -18 11 -40 20 -49 20 -9 0 -16 6 -16 13 0 35 23 133 36 151 9 14 14 49 14
107 0 113 12 124 71 68z m-176 -481 c0 -105 -2 -113 -20 -116 -11 -1 -37 -5
-57 -8 -45 -7 -49 6 -12 35 22 17 23 22 12 40 -7 12 -21 21 -30 21 -10 0 -18
5 -18 12 0 21 43 58 67 58 16 0 23 6 23 20 0 17 -7 20 -45 20 -25 0 -45 4 -45
9 0 11 29 18 85 20 l41 1 -1 -112z m840 0 c-9 -53 -14 -60 -62 -77 -21 -8 -41
-18 -44 -23 -3 -5 -38 -15 -77 -21 -39 -7 -74 -16 -78 -20 -11 -11 -272 -9
-279 3 -3 6 -21 10 -38 10 -18 0 -50 9 -71 19 -38 20 -38 20 -43 0 -4 -15 -14
-19 -44 -19 l-39 0 0 61 0 61 48 -7 c26 -4 52 -11 57 -15 6 -5 38 -18 72 -29
49 -17 87 -21 181 -21 65 0 122 4 127 8 6 5 42 14 80 21 71 12 141 40 184 73
13 10 26 18 28 18 3 0 2 -19 -2 -42z"/>
<path d="M640 880 c-8 -5 -41 -12 -72 -15 -48 -5 -58 -10 -58 -26 0 -11 7 -19
18 -19 9 0 23 -9 30 -21 17 -27 63 -22 77 9 9 21 15 22 120 22 105 0 111 -1
120 -22 14 -31 60 -36 75 -9 6 13 21 21 35 21 18 0 25 5 25 19 0 20 -40 31
-117 31 -23 0 -45 5 -48 10 -8 12 -184 12 -205 0z"/>
<path d="M692 788 c-17 -17 -15 -35 4 -46 15 -8 15 -11 -5 -31 -24 -24 -28
-61 -6 -61 8 0 20 9 27 20 17 26 31 25 43 -2 13 -30 65 -38 65 -10 0 10 -11
29 -25 42 -19 18 -25 32 -23 59 3 34 1 36 -32 39 -19 2 -41 -3 -48 -10z"/>
</g>
</svg>
